<svg xmlns="http://www.w3.org/2000/svg" version="1.1" xmlns:xlink="http://www.w3.org/1999/xlink" xmlns:svgjs="http://svgjs.dev/svgjs" width="1000" height="222" viewBox="0 0 1000 222"><g transform="matrix(1,0,0,1,-0.606058595918455,0.6249697480567704)"><svg viewBox="0 0 396 88" data-background-color="#ffffff" preserveAspectRatio="xMidYMid meet" height="222" width="1000" xmlns="http://www.w3.org/2000/svg" xmlns:xlink="http://www.w3.org/1999/xlink"><g id="tight-bounds" transform="matrix(1,0,0,1,0.23999920616859072,-0.24773575598646858)"><svg viewBox="0 0 395.52 88.49547151197291" height="88.49547151197291" width="395.52"><g><svg viewBox="0 0 714.9089628748877 159.9570331658291" height="88.49547151197291" width="395.52"><g><rect width="12.020908605460582" height="159.9570331658291" x="426.98834713471354" y="0" fill="#8d71a8" opacity="1" stroke-width="0" stroke="transparent" fill-opacity="1" class="rect-o-0" data-fill-palette-color="primary" rx="1%" id="o-0" data-palette-color="#8d71a8"></rect></g><g transform="matrix(1,0,0,1,0,13.329752763819087)"><svg viewBox="0 0 395.52 133.29752763819093" height="133.29752763819093" width="395.52"><g id="textblocktransform"><svg viewBox="0 0 395.52 133.29752763819093" height="133.29752763819093" width="395.52" id="textblock"><g><svg viewBox="0 0 395.52 133.29752763819093" height="133.29752763819093" width="395.52"><g transform="matrix(1,0,0,1,0,0)"><svg width="395.52" viewBox="0.2800000011920929 -34.400001525878906 119.38999938964844 40.2400016784668" height="133.29752763819093" data-palette-color="#8d71a8"><path d="M1.76-19.12L1.76-19.12Q0.28-19.12 0.28-21.2 0.28-23.28 2.44-25.84L2.44-25.84Q6.04-30.16 12.44-30.84L12.44-30.84 14.64-30.96Q21.92-30.96 25.2-25.16L25.2-25.16Q27.16-21.6 27.16-16.96L27.16-16.96Q27.16-15.04 26.84-12.92L26.84-12.92Q25.68-5.8 21.32-0.84L21.32-0.84Q16.52 4.64 10.14 4.64 3.76 4.64 2.04 1.08L2.04 1.08Q1.52-0.04 1.52-1.3 1.52-2.56 2.2-3.96L2.2-3.96Q3.52-6.52 5.8-6.52L5.8-6.52Q6-6.52 6.06-6.3 6.12-6.08 6.02-5.84 5.92-5.6 5.72-5.6L5.72-5.6Q4.36-5.6 3.36-3.84L3.36-3.84Q2.72-2.6 2.72-1.56 2.72-0.52 3.12 0.36L3.12 0.36Q4.4 3.08 9.24 3.08L9.24 3.08Q14.72 3.08 19.16-2.52L19.16-2.52Q23.16-7.56 24.32-14.36L24.32-14.36Q24.72-16.56 24.72-18.52L24.72-18.52Q24.72-22.88 22.76-25.88L22.76-25.88Q20.16-29.92 14.6-29.92L14.6-29.92Q7.64-29.92 4.16-25.24L4.16-25.24Q2.4-22.84 2.4-20.76L2.4-20.76Q2.4-19.92 2.76-19.92L2.76-19.92Q2.52-19.12 1.76-19.12ZM7.52-3.96L7.52-3.96Q7.52-10.04 8.6-15.78 9.68-21.52 11.26-24.86 12.84-28.2 14.32-28.2L14.32-28.2Q14.96-28.2 14.96-27.56L14.96-27.56Q13.16-23.84 11.8-17.64L11.8-17.64Q9.28-6.32 9.28-1.28L9.28-1.28Q9.28-0.76 8.72-0.76L8.72-0.76Q7.52-0.76 7.52-3.96ZM40.44-19.4L40.44-19.4Q43.48-19.4 43.48-15.84L43.48-15.84Q43.48-13.8 42.12-11.56L42.12-11.56Q39.8-7.84 35.96-7.84L35.96-7.84Q35.36-7.84 34.96-8.04 34.56-8.24 34.36-8.64L34.36-8.64Q37.2-8.64 39.56-11.92L39.56-11.92Q41.48-14.56 41.48-16.76L41.48-16.76Q41.48-18.4 40.16-18.4L40.16-18.4Q37.52-18.4 35.24-14.28L35.24-14.28Q32.8-9.8 32.8-5.08L32.8-5.08Q32.8-1.08 35.08-0.28L35.08-0.28Q35.52-0.12 36.2-0.12 36.88-0.12 37.64-0.46 38.4-0.8 38.92-1.28L38.92-1.28Q39.96-2.24 40.64-3.4L40.64-3.4Q40.8-3.72 41.24-3.72L41.24-3.72Q41.96-3.72 41.92-3.48L41.92-3.48Q41.8-3.04 41.02-2 40.24-0.96 39.58-0.34 38.92 0.28 37.86 0.78 36.8 1.28 35.72 1.28L35.72 1.28Q31.48 1.28 30.32-2.72L30.32-2.72Q29.96-4.08 29.96-5.52L29.96-5.52Q29.96-8.2 31.2-11.36L31.2-11.36Q33.16-16.16 36.6-18.28L36.6-18.28Q38.48-19.4 40.44-19.4ZM52.23-20.44L52.23-20.44Q52.23-17.6 53.91-17.32L53.91-17.32Q53.8-16.76 52.99-16.76L52.99-16.76Q51.35-16.76 50.67-18.72L50.67-18.72Q50.35-19.64 50.35-20.96 50.35-22.28 51.39-24.16L51.39-24.16Q53.8-28.52 60.2-29.8L60.2-29.8Q62.48-30.24 65.19-30.24 67.91-30.24 70.14-30.88 72.36-31.52 73.41-32.32 74.47-33.12 75.41-33.76 76.36-34.4 76.97-34.4 77.59-34.4 77.59-33.84L77.59-33.84Q77.59-32.52 75-31.16 72.39-29.8 68.23-29.4L68.23-29.4Q66.52-28.48 65.56-22.88L65.56-22.88Q64.47-16.44 63.75-12.36 63.03-8.28 62.05-5.38 61.08-2.48 59.84-0.26 58.59 1.96 56.58 3.3 54.55 4.64 51.85 4.64 49.16 4.64 47.48 2.88L47.48 2.88Q45.63 0.96 45.63-2.32L45.63-2.32Q45.63-7.8 48.55-10.72L48.55-10.72Q50.31-12.48 52.48-12.48L52.48-12.48Q52.99-12.48 53.34-12.24 53.67-12 53.8-11.52L53.8-11.52Q50.39-11.52 48.27-8L48.27-8Q46.71-5.4 46.71-2.6L46.71-2.6Q46.71 2 49.88 3L49.88 3Q50.59 3.24 51.44 3.24L51.44 3.24Q53.91 3.24 55.77 1.2 57.63-0.84 58.62-3.96 59.59-7.08 60.49-10.98 61.39-14.88 62-18.4 62.59-21.92 63.61-24.98 64.64-28.04 65.95-29.28L65.95-29.28 65.16-29.28Q56.95-29.28 53.72-24.68L53.72-24.68Q52.23-22.6 52.23-20.44ZM72.55 0L72.55 0Q69.27 0 69.27-5.16L69.27-5.16Q69.27-8.24 70.79-11.92L70.79-11.92Q72.91-17.08 76.35-18.96L76.35-18.96Q77.83-19.76 79.11-19.76 80.39-19.76 81.13-19.2 81.87-18.64 82.07-18.08L82.07-18.08 82.31-17.56Q82.19-16.88 81.63-16.88L81.63-16.88Q80.99-16.88 80.89-17.18 80.79-17.48 80.67-17.7 80.55-17.92 80.11-18.3 79.67-18.68 79.11-18.68L79.11-18.68Q76.51-18.68 74.39-14L74.39-14Q71.99-8.6 71.99-3.84L71.99-3.84Q71.99-1.44 72.95-1.44L72.95-1.44Q73.71-1.44 75.09-3.14 76.47-4.84 77.99-7.4L77.99-7.4Q80.63-11.8 82.27-15.04L82.27-15.04Q83.63-17.92 85.07-17.92L85.07-17.92Q85.83-17.92 85.83-17L85.83-17Q85.47-16.24 84.91-14.84 84.35-13.44 83.43-9.28 82.51-5.12 82.51-1 82.51 3.12 83.75 3.12L83.75 3.12Q84.23 3.12 84.63 2.7 85.03 2.28 85.35 1.44L85.35 1.44Q85.47 1 85.91 1L85.91 1Q86.07 1 86.15 1.12 86.23 1.24 86.15 1.52 86.07 1.8 85.87 2.3 85.67 2.8 85.01 3.64 84.35 4.48 83.63 4.48L83.63 4.48Q81.95 4.48 81.05 2.28 80.15 0.08 80.15-2.92 80.15-5.92 80.59-8.68L80.59-8.68 80.19-8.68Q75.11 0 72.55 0ZM89.35-3.4L89.35-3.4Q89.35-9.32 90.57-13.96 91.79-18.6 93.67-18.6L93.67-18.6Q94.59-18.6 94.59-17.6L94.59-17.6Q94.19-16.56 93.59-14.84 92.99-13.12 92.01-8.62 91.03-4.12 91.03-0.6L91.03-0.6Q91.03-0.04 90.43-0.04L90.43-0.04Q89.35-0.04 89.35-3.4ZM95.19-23.04L94.71-22.36Q93.87-22.36 93.87-23.96L93.87-23.96Q93.87-24.92 94.39-25.98 94.91-27.04 95.87-27.04L95.87-27.04Q96.67-27.04 96.67-26.12L96.67-26.12Q96.67-25.2 95.19-23.04L95.19-23.04ZM102.91 5.84L102.91 5.84Q100.59 5.84 99.49 3.4 98.39 0.96 98.39-3.92 98.39-8.8 99.83-15.48 101.27-22.16 103.21-26.56 105.15-30.96 106.59-30.96L106.59-30.96Q107.27-30.96 107.27-30.16L107.27-30.16Q106.43-28.24 105.15-24.38 103.87-20.52 103.01-17.24 102.15-13.96 101.45-9.56 100.75-5.16 100.75-2.02 100.75 1.12 101.37 2.82 101.99 4.52 103.07 4.52L103.07 4.52Q103.99 4.52 104.83 3.66 105.67 2.8 106.03 1.96L106.03 1.96Q106.23 1.52 106.75 1.72L106.75 1.72Q106.95 1.8 106.85 2.06 106.75 2.32 106.53 2.72 106.31 3.12 105.75 3.96L105.75 3.96Q104.55 5.84 102.91 5.84ZM110.39-1.36L110.39-1.36Q110.39 1.44 112.19 1.44L112.19 1.44Q113.87 1.44 115.33-1.32 116.78-4.08 116.78-8.28L116.78-8.28Q116.78-10.32 116.05-14.04 115.31-17.76 115.31-18.9 115.31-20.04 115.39-20.4L115.39-20.4Q114.87-19.56 112.39-14.82 109.91-10.08 107.98-7.32L107.98-7.32Q107.83-7.16 107.55-7.22 107.27-7.28 107.09-7.46 106.91-7.64 106.91-7.72 106.91-7.8 106.95-7.84L106.95-7.84Q108.83-10.56 111.33-15.34 113.83-20.12 115.5-22.48 117.19-24.84 118.83-24.84L118.83-24.84Q119.67-24.84 119.67-24.12L119.67-24.12Q119.67-23.64 118.98-22.84L118.98-22.84Q116.83-20.4 116.83-17.84L116.83-17.84Q116.83-16.32 117.98-11.98 119.14-7.64 119.14-5.68L119.14-5.68Q119.14-2.16 117.19 0.3 115.22 2.76 112.75 2.76L112.75 2.76Q109.23 2.76 109.23-1.28L109.23-1.28Q109.23-4.32 111.09-7.64 112.95-10.96 114.83-12.12L114.83-12.12Q115.19-12.36 115.28-11.84 115.39-11.32 115.14-11.16L115.14-11.16Q113.03-9.96 111.47-6.04L111.47-6.04Q110.39-3.28 110.39-1.36Z" opacity="1" transform="matrix(1,0,0,1,0,0)" fill="#8d71a8" class="undefined-text-0" data-fill-palette-color="primary" id="text-0"></path></svg></g></svg></g></svg></g></svg></g><g transform="matrix(1,0,0,1,470.4776028748877,13.275717971562116)"><svg viewBox="0 0 244.43135999999998 133.40559722270487" height="133.40559722270487" width="244.43135999999998"><g><svg xmlns="http://www.w3.org/2000/svg" xmlns:xlink="http://www.w3.org/1999/xlink" version="1.1" x="0" y="0" viewBox="5.369797229766846 25.70000457763672 89.2302017211914 48.70000457763672" enable-background="new 0 0 100 100" xml:space="preserve" height="133.40559722270487" width="244.43135999999998" class="icon-icon-0" data-fill-palette-color="accent" id="icon-0"><path d="M84.6 69.6c0 0.6-0.3 1.1-0.7 1.1-0.4 0-0.7-0.5-0.7-1.1s0.3-1.1 0.7-1.1S84.6 69 84.6 69.6zM47.4 58.4c-0.8-0.3-1.9 0.1-2.1 0.6-0.1 0.5 0.6 1.2 1.5 1.4 0.8 0.3 1.7 0 1.9-0.4C48.8 59.4 48.2 58.6 47.4 58.4zM45 52.9c0-0.7-0.3-1.3-0.8-1.3-0.4 0-0.7 0.6-0.7 1.3 0 0.7 0.3 1.2 0.7 1.2C44.6 54.1 45 53.6 45 52.9zM37.1 42.6c-0.6-0.4-1.4 0.1-2 1s-0.8 1.7-0.2 2.2c0.6 0.4 1.7 0.2 2.3-0.7C37.8 44.2 37.7 43 37.1 42.6zM10.8 45.3c-0.5 0-0.6 0.5-0.6 1.1 0 0.7 0.2 1 0.6 1 0.5 0 1-0.3 1-1C11.8 45.7 11.2 45.3 10.8 45.3zM47.4 34.7c-0.5 0-1 0.8-1 1.6 0 0.8 0.4 1.5 1 1.5 0.5 0 1.1-0.7 1.1-1.5C48.4 35.5 47.9 34.7 47.4 34.7zM61.2 62.3c0 1.5-1.7 1.5-2.4 1.5s-2.2 0-2.2-1.5c0-0.8 0.6-1.7 2.2-1.7C60.5 60.5 61.2 61.4 61.2 62.3zM60.5 62.3c0-0.6-0.7-1-1.7-1s-1.4 0.4-1.4 1c0 0.5 0.3 0.7 1 0.7-0.4-0.1-0.8-0.5-0.8-0.7 0-0.3 0.6-0.6 1.2-0.6S60 62 60 62.3c0 0.2-0.3 0.6-0.7 0.7C60 63 60.5 62.8 60.5 62.3zM50.2 60.2c-0.3 1-1.6 1.5-2.7 1.5-0.4 0-0.8-0.1-1.2-0.2-1.6-0.5-2.7-2-2.3-3.2 0.1-0.4 0.5-1.2 2-1.2 0.5 0 1 0.1 1.6 0.3C49.5 58 50.5 59.1 50.2 60.2zM47.4 58.2C47 58.1 46.6 58 46.2 58c-0.7 0-1.2 0.2-1.3 0.7-0.2 0.8 0.6 1.9 1.8 2.3C47 61 47.2 61 47.5 61c0.9 0 1.8-0.4 2-1C49.7 59.2 48.6 58.5 47.4 58.2zM44.2 56.1c-0.9 0-1.6-0.7-1.9-1.3-0.3-0.5-0.5-1.2-0.5-1.9 0-0.8 0.2-1.4 0.5-1.9 0.4-0.7 1.2-1.2 2-1.2 0.8 0 1.6 0.5 2 1.2 0.3 0.5 0.5 1.3 0.5 2s-0.4 1.3-0.6 1.8l-0.1 0.1C45.7 55.3 45.1 56.1 44.2 56.1zM44.2 55.4c0.5 0 0.9-0.5 1.2-1 0.2-0.4 0.6-0.9 0.6-1.5 0-0.6-0.2-1.2-0.4-1.6-0.3-0.5-0.9-0.8-1.4-0.8-0.5 0-1 0.3-1.3 0.8-0.2 0.4-0.4 1-0.4 1.6 0 0.6 0.1 1.1 0.4 1.6S43.7 55.4 44.2 55.4zM49.6 36.3c0 1.8-1 3.1-2.2 3.1-1.3 0-2.5-1.5-2.5-3.1 0-1.6 1.2-3 2.5-3C48.6 33.2 49.6 34.5 49.6 36.3zM48.9 36.3c0-1.2-0.6-2.3-1.5-2.3-0.9 0-1.8 1.1-1.8 2.3 0 1.2 0.9 2.4 1.8 2.4C48.3 38.6 48.9 37.5 48.9 36.3zM38.3 45.9c-0.7 1.1-2.1 1.5-3.1 1.5-0.5 0-1-0.1-1.4-0.4-1.2-0.9-1-2.9 0-4.3 0.7-0.9 1.9-1.9 3-1.9 0.4 0 0.7 0.1 1.1 0.3C39.1 42 39.3 44.5 38.3 45.9zM37.6 41.8c-0.2-0.1-0.4-0.2-0.6-0.2-0.8 0-1.8 0.7-2.4 1.6-0.8 1.1-1 2.7-0.2 3.2 0.3 0.2 0.6 0.3 1 0.3 0.9 0 1.9-0.4 2.5-1.2C38.5 44.3 38.4 42.4 37.6 41.8zM12.9 46.4c0 1.4-1.2 2.3-2.3 2.3-1.2 0-2-1-2-2.3 0-1.3 0.8-2.3 2-2.3S12.9 45 12.9 46.4zM12.3 46.4c0-1-0.8-1.6-1.6-1.6-0.7 0-1.3 0.6-1.3 1.6 0 1 0.5 1.6 1.3 1.6C11.5 48 12.3 47.4 12.3 46.4zM71.6 54c-0.4-0.2-0.8 0-1 0.3s-0.2 0.8 0.2 1.1c0.4 0.2 1.1 0 1.2-0.3C72.2 54.8 72 54.2 71.6 54zM72.9 55.6c-0.3 0.5-0.8 0.8-1.3 0.8-0.4 0-0.8-0.1-1.2-0.4-1.4-0.8-1.5-1.8-1.1-2.5 0.3-0.5 0.7-0.8 1.3-0.8 0.4 0 0.8 0.1 1.3 0.4C73.6 54.1 73.1 55.3 72.9 55.6zM71.7 53.8c-0.4-0.2-0.7-0.3-1-0.3s-0.5 0.1-0.7 0.4c-0.3 0.6 0.1 1.1 0.8 1.5 0.3 0.2 0.6 0.3 0.9 0.3 0.3 0 0.5-0.1 0.7-0.4C72.7 54.7 72.4 54.2 71.7 53.8zM37.8 35.2C38.2 34.7 38.1 34.6 37.8 35.2c-1.2 1.2-3.3 4-6.6 6.4-1.7 1.2-3.7 2.3-5.9 2.8-1.1 0.2-2.3 0.3-3.4 0.2-1.1-0.1-2.4-0.3-3.5-0.5-2.2-0.4-4.3-1-5.9-2.2-0.8-0.6-1.2-1.3-1.2-2.1 0-0.8 0.5-1.6 1.1-2.1 2.8-2.2 4.5-4.8 4.3-6.4-0.1-0.3-0.2-0.5-0.2-0.4 0 0 0 0.2 0.1 0.5 0 0.6-0.4 1.5-1.1 2.4-0.7 0.9-1.7 1.9-3.1 2.8-0.8 0.5-1.6 1.2-2 2.3-0.2 0.5-0.3 1.2-0.2 1.8s0.5 1.2 0.9 1.7c0.9 1 2 1.6 3.2 2.1s2.6 0.8 4 1.1c1.5 0.3 2.9 0.5 4.3 0.5s2.8-0.2 4.1-0.6c2.5-0.8 4.4-2.2 5.9-3.6C35.3 39.1 36.9 36.5 37.8 35.2zM94.1 73.6C94.1 73.6 94 73.6 94.1 73.6 94 73.8 94 73.9 94 73.9c0 0.3-0.2 0.5-0.5 0.5S93 74.2 93 73.9c-0.1 0-0.2 0-0.3-0.1-0.7-0.1-1.6-0.4-2.2-0.7-0.1 0.1-0.1 0.1-0.2 0.2-0.2 0.1-0.6 0.3-0.6 0.3s-0.1 0-0.1 0.1c-0.1 0.1-0.3 0.2-0.4 0.3-0.5 0.3-1.6 0.4-2.2 0.4-0.2 0-0.4 0-0.5 0-0.9-0.1-1.7-0.5-2.6-0.9-0.2-0.1-0.4-0.2-0.5-0.3-0.2-0.1-0.4-0.2-0.6-0.3-0.5-0.3-0.8-0.4-1.5-0.5-1.3-0.2-2.1-0.4-3.3-1.2-0.5-0.3-1.1-0.9-1.7-1.4-0.6-0.6-1.4-1.3-1.8-1.6-0.2-0.1-0.4-0.2-0.7-0.3-1.8-0.8-4.4-2-5.2-4-0.1-0.2-0.1-0.3-0.2-0.5-0.2-0.6-0.4-1.1-0.5-1.6C67.7 63 67 64.1 66 65.3c-2 2.3-4.3 4.4-9.7 4.4-0.6 0-1.3 0-2-0.1-5.8-0.5-11-3.2-12.8-5.4-1.7-2.1-5.2-7.5-2.8-14.1-1.6 1.4-3.6 2.8-6.2 3.9-2.4 1-5.4 1.5-8.9 1.5-5.7 0-11.2-1.5-14.1-3.9-2.4-1.9-3.8-4.4-4.1-7.2-0.2-2.5 0.6-5.1 2.2-7.4 0.6-0.9 1.5-1.6 2.3-2.1 1.3-1 2.3-1.7 2.4-3.7 0.2-2.6 1.5-5.5 6.4-5.5 0.1 0 0.2 0 0.4 0 2.4 0.1 4.7 1.4 5.4 3.1 0.4 1 0.2 2-0.5 2.8-0.3 0.3-0.7 0.5-1.2 0.5-0.8 0-1.4-0.5-1.7-1.4-0.1-0.1-0.5-0.1-1-0.1h-0.1c1.8 2 2.7 4.9 1.3 7.6-0.7 1.5-1.2 2.5-1.6 3.2 0.6 0.1 1.4 0.3 2.3 0.3 2.8 0 5.2-1.3 7.3-4 5.1-6.5 10.1-9.1 17.2-9.1 1 0 2 0.1 3.1 0.2 5.9 0.6 11.4 3.2 14.3 6.8 1.6 2 2.3 4.1 2 6-0.4 3.3-1.3 5.3-2.2 6.7 0.5-0.1 0.9-0.1 1.4-0.1 1 0 2.1 0.1 3.2 0.3 3.5 0.7 7.6 2.7 8.6 6.2 0.6 2.1-0.1 4.3-0.7 5.5 1.7 0.3 3.3 0.8 3.7 0.9 0.3 0.1 0.5 0.2 0.8 0.4 0.1 0.1 0.4 0.2 0.5 0.2s0.2 0 0.4 0.1c0.4 0 1 0.1 1.6 0.3 0.9 0.3 2 1.1 2.5 1.6 0.4 0.4 0.9 0.9 1.1 1.1s0.3 0.4 0.4 0.5l0.1 0.1c0.3 0.2 0.6 0.4 0.9 0.6 0.4 0.4 0.7 0.8 0.9 1.2 0.1 0.2 0.3 0.5 0.6 0.7 0.1 0.1 0.3 0.2 0.4 0.4 0.2 0.2 0.4 0.3 0.7 0.6 0.3 0.3 1.3 1.6 0.9 2.8 0 0.1-0.1 0.3-0.2 0.5 0 0.1 0 0.2-0.1 0.3 0.7 0.3 1.4 0.5 1.9 0.6l0 0h0.1c0.2 0 0.4 0 0.4-0.1 0.2-0.2 0.6-0.1 0.8 0.1C94.4 73.1 94.3 73.4 94.1 73.6zM89.5 71.2c0 0 0-0.1 0.1-0.3 0-0.1-0.2-0.7-0.5-1-0.1-0.2-0.3-0.3-0.5-0.4s-0.3-0.3-0.5-0.4c-0.4-0.3-0.7-0.7-0.9-1.2-0.2-0.3-0.4-0.6-0.6-0.8-0.1-0.1-0.4-0.3-0.6-0.4-0.2-0.1-0.4-0.2-0.5-0.3-0.2-0.2-0.3-0.3-0.3-0.4s0-0.1 0-0.1c-0.2-0.2-0.7-0.7-1.1-1.1-0.3-0.3-1.3-1-1.9-1.2-0.4-0.1-0.8-0.2-1.2-0.2-0.2 0-0.5 0-0.6-0.1-0.3-0.1-0.6-0.2-0.9-0.4-0.2-0.1-0.4-0.2-0.5-0.2-0.4-0.1-2.4-0.7-4.1-1-0.5-0.1-1.1-0.3-1.3-0.8s0.2-1 0.4-1.3c0-0.1 0.1-0.1 0.1-0.2 0.3-0.5 1.3-2.6 0.7-4.4-0.5-1.8-2.7-4.1-7.2-4.9-1-0.2-1.9-0.3-2.8-0.3-2.5 0-4.3 0.8-5.1 2.2-1 1.8-1.3 3.5-1 6 0 0.1 0 0.2-0.1 0.3s-0.2 0.1-0.3 0.1c0 0-0.3 0-0.8 0-0.8 0-1.4 0-1.8-0.1-1.1-0.2-2.7-1.3-2.8-1.5-0.4-0.3-0.9-0.8-1-0.8C52 56 52 55.9 52 55.8c0.1-2.2 1.6-3 4.3-4.4l1.1-0.6c1.7-0.9 2.8-1.6 3.5-2.2 0.2-0.2 2.4-2.1 3.1-7.5 0.2-1.5-0.4-3.2-1.6-4.7-2.6-3.3-7.7-5.6-13-6.1-1-0.1-2-0.1-2.9-0.1-6.5 0-11 2.4-15.8 8.4-2.4 3-5.4 4.6-8.7 4.6-1.7 0-3.1-0.4-3.7-0.6-0.1 0-0.2-0.1-0.2-0.1-0.5-0.1-0.8-0.2-0.9-0.4-0.1-0.1 0-0.3 0.1-0.4 0.1-0.2 0.7-1 2.4-4.4 1.3-2.5-0.2-5.3-2.3-6.7-0.1-0.1-0.1-0.1-0.2-0.1-0.2-0.1-0.4-0.3-0.5-0.5 0-0.1 0-0.3 0.1-0.4 0.5-0.6 2.1-0.9 3.3-0.9 1.5 0 2.5 0.5 2.7 1.3l0 0c0.1-0.2 0.1-0.4 0-0.7-0.4-0.9-2.1-1.9-3.9-1.9-0.1 0-0.2 0-0.3 0-3.1 0-4.4 1.2-4.6 3.9-0.2 2.8-1.8 4-3.2 5-0.7 0.5-1.4 1-1.9 1.7-2.5 3.6-3 8.7 1.5 12.3 2.6 2.1 7.7 3.5 13 3.5 3.2 0 6-0.5 8.2-1.4 5.7-2.4 8.5-6.4 9.8-8.3l0.3-0.4c0.9-1.2 2.1-1.8 4.2-1.8 0.7 0 1.4 0.1 2.5 0.2 2.2-0.4 4.3-0.6 5-0.5 0.2 0 0.2 0 0 0.1-0.7 0.1-2.5 0.5-4.8 1.1l-0.1 0.1c-2.8 0.7-6.4 4.1-7.9 7.3-2.8 6 0.6 11.2 2.2 13.1 1.4 1.7 5.9 4.3 11.6 4.8 0.6 0.1 1.3 0.1 1.8 0.1 4.5 0 6.4-1.8 8.3-3.9 2.2-2.5 2.6-4.4 1.5-7.5v-0.1c-0.4-0.1-0.7-0.3-1-0.5-0.4-0.3-0.6-0.6-0.7-0.9C64 55 64 54.7 64 54.6c0-0.1 0-0.1 0.1 0 0 0.3 0.3 0.8 0.9 1.2 0.5 0.3 1.1 0.4 1.9 0.5l0 0c0.2 0 0.5 0 0.7 0.1l0 0 0 0c1 0.2 2 0.7 2.4 1.3 0.3 0.4 0.3 0.7 0.2 0.9-0.8 2.5-0.6 3.2 0 4.5l0.2 0.5c0.5 1.3 2.9 2.4 4.3 3 0.3 0.1 0.6 0.3 0.8 0.4 0.7 0.3 1.5 1.1 2.3 1.9 0.5 0.5 1.1 1 1.4 1.3 0.9 0.6 1.4 0.7 2.6 0.9 1 0.2 1.5 0.4 2 0.7 0.2 0.1 0.3 0.2 0.5 0.3s0.4 0.2 0.6 0.3c0.7 0.4 1.4 0.7 2 0.8 0.7 0.1 1.6-0.1 1.7-0.2 0 0 0 0 0.1-0.1s0.1-0.1 0.2-0.1c0.1-0.1 0.3-0.2 0.4-0.2s0.3-0.1 0.4-0.2v-0.1C89.3 71.4 89.4 71.2 89.5 71.2zM54.1 55.3c0.1 0 0.1 0.1 0.2 0.1 0.7 0.5 1.7 1.1 2.2 1.2 0.2 0 0.4 0.1 0.6 0.1 0-1.5 0.1-2.7 0.6-3.9-0.1 0-0.2 0.1-0.3 0.1C55.2 54.1 54.4 54.6 54.1 55.3z" fill="#8d71a8" data-fill-palette-color="accent"></path></svg></g></svg></g></svg></g><defs></defs></svg><rect width="395.52" height="88.49547151197291" fill="none" stroke="none" visibility="hidden"></rect></g></svg></g></svg>